paradisio.ufo
<glyph name="exclam" format="2">
	<advance width="252"/>
	<unicode hex="0021"/>
	<outline>
		<contour>
			<point x="174" y="167" type="line"/>
			<point x="174" y="650" type="line"/>
			<point x="78" y="650" type="line"/>
			<point x="78" y="167" type="line"/>
		</contour>
		<contour>
			<point x="126" y="-15" type="curve" smooth="yes"/>
			<point x="174" y="-15"/>
			<point x="187" y="3"/>
			<point x="187" y="48" type="curve" smooth="yes"/>
			<point x="187" y="91"/>
			<point x="174" y="109"/>
			<point x="126" y="109" type="curve" smooth="yes"/>
			<point x="78" y="109"/>
			<point x="65" y="91"/>
			<point x="65" y="48" type="curve" smooth="yes"/>
			<point x="65" y="3"/>
			<point x="78" y="-15"/>
		</contour>
	</outline>
</glyph>
<glyph name="ampersand" format="2">
	<advance width="618"/>
	<unicode hex="0026"/>
	<anchor x="960" y="200" name="_bottom"/>
	<outline>
		<contour>
			<point x="513" y="213" type="curve" smooth="yes"/>
			<point x="513" y="247"/>
			<point x="513" y="280"/>
			<point x="513" y="314" type="curve"/>
			<point x="422" y="314" type="line"/>
			<point x="422" y="280"/>
			<point x="422" y="247"/>
			<point x="422" y="213" type="curve" smooth="yes"/>
			<point x="422" y="109"/>
			<point x="383" y="73"/>
			<point x="276" y="73" type="curve" smooth="yes"/>
			<point x="173" y="73"/>
			<point x="128" y="106"/>
			<point x="128" y="185" type="curve" smooth="yes"/>
			<point x="128" y="255"/>
			<point x="173" y="288"/>
			<point x="271" y="288" type="curve" smooth="yes"/>
			<point x="613" y="288" type="line"/>
			<point x="613" y="382" type="line"/>
			<point x="271" y="382" type="line" smooth="yes"/>
			<point x="200" y="382"/>
			<point x="168" y="412"/>
			<point x="168" y="478" type="curve" smooth="yes"/>
			<point x="168" y="547"/>
			<point x="200" y="577"/>
			<point x="271" y="577" type="curve" smooth="yes"/>
			<point x="345" y="577"/>
			<point x="372" y="557"/>
			<point x="372" y="496" type="curve"/>
			<point x="463" y="496" type="line"/>
			<point x="463" y="606"/>
			<point x="419" y="665"/>
			<point x="271" y="665" type="curve" smooth="yes"/>
			<point x="131" y="665"/>
			<point x="75" y="614"/>
			<point x="75" y="478" type="curve" smooth="yes"/>
			<point x="75" y="397"/>
			<point x="116" y="308"/>
			<point x="263" y="308" type="curve"/>
			<point x="263" y="361" type="line"/>
			<point x="84" y="361"/>
			<point x="35" y="274"/>
			<point x="35" y="185" type="curve" smooth="yes"/>
			<point x="35" y="39"/>
			<point x="104" y="-15"/>
			<point x="276" y="-15" type="curve" smooth="yes"/>
			<point x="458" y="-15"/>
			<point x="513" y="64"/>
		</contour>
	</outline>
</glyph>
<glyph name="parenleft" format="2">
	<advance width="330"/>
	<unicode hex="0028"/>
	<outline>
		<contour>
			<point x="320" y="-150" type="curve"/>
			<point x="320" y="-55" type="line"/>
			<point x="218" y="-55"/>
			<point x="180" y="-12"/>
			<point x="180" y="102" type="curve" smooth="yes"/>
			<point x="180" y="448" type="line" smooth="yes"/>
			<point x="180" y="562"/>
			<point x="218" y="605"/>
			<point x="320" y="605" type="curve"/>
			<point x="320" y="700" type="line"/>
			<point x="145" y="700"/>
			<point x="80" y="632"/>
			<point x="80" y="448" type="curve" smooth="yes"/>
			<point x="80" y="102" type="line" smooth="yes"/>
			<point x="80" y="-82"/>
			<point x="145" y="-150"/>
		</contour>
	</outline>
</glyph>
<glyph name="question" format="2">
	<advance width="513"/>
	<unicode hex="003F"/>
	<outline>
		<contour>
			<point x="229" y="-15" type="curve" smooth="yes"/>
			<point x="277" y="-15"/>
			<point x="290" y="3"/>
			<point x="290" y="48" type="curve" smooth="yes"/>
			<point x="290" y="91"/>
			<point x="277" y="109"/>
			<point x="229" y="109" type="curve" smooth="yes"/>
			<point x="181" y="109"/>
			<point x="168" y="91"/>
			<point x="168" y="48" type="curve" smooth="yes"/>
			<point x="168" y="3"/>
			<point x="181" y="-15"/>
		</contour>
		<contour>
			<point x="40" y="466" type="curve" smooth="yes"/>
			<point x="40" y="424" type="line"/>
			<point x="133" y="424" type="line"/>
			<point x="133" y="466" type="line" smooth="yes"/>
			<point x="133" y="549"/>
			<point x="164" y="577"/>
			<point x="259" y="577" type="curve" smooth="yes"/>
			<point x="354" y="577"/>
			<point x="385" y="547"/>
			<point x="385" y="456" type="curve" smooth="yes"/>
			<point x="385" y="371"/>
			<point x="363" y="348"/>
			<point x="307" y="348" type="curve" smooth="yes"/>
			<point x="218" y="348"/>
			<point x="184" y="313"/>
			<point x="184" y="219" type="curve" smooth="yes"/>
			<point x="184" y="167" type="line"/>
			<point x="276" y="167" type="line"/>
			<point x="276" y="219" type="line" smooth="yes"/>
			<point x="276" y="250"/>
			<point x="284" y="260"/>
			<point x="307" y="260" type="curve" smooth="yes"/>
			<point x="422" y="260"/>
			<point x="478" y="319"/>
			<point x="478" y="456" type="curve" smooth="yes"/>
			<point x="478" y="604"/>
			<point x="419" y="665"/>
			<point x="259" y="665" type="curve" smooth="yes"/>
			<point x="99" y="665"/>
			<point x="40" y="604"/>
		</contour>
	</outline>
</glyph>
<glyph name="at" format="2">
	<advance width="801"/>
	<unicode hex="0040"/>
	<outline>
		<contour>
			<point x="751" y="251" type="curve" smooth="yes"/>
			<point x="751" y="524"/>
			<point x="626" y="594"/>
			<point x="393" y="594" type="curve" smooth="yes"/>
			<point x="170" y="594"/>
			<point x="50" y="501"/>
			<point x="50" y="224" type="curve" smooth="yes"/>
			<point x="50" y="-53"/>
			<point x="170" y="-136"/>
			<point x="393" y="-136" type="curve" smooth="yes"/>
			<point x="525" y="-136" type="line"/>
			<point x="525" y="-54" type="line"/>
			<point x="393" y="-54" type="line" smooth="yes"/>
			<point x="223" y="-54"/>
			<point x="137" y="-1"/>
			<point x="137" y="224" type="curve" smooth="yes"/>
			<point x="137" y="449"/>
			<point x="223" y="512"/>
			<point x="393" y="512" type="curve" smooth="yes"/>
			<point x="573" y="512"/>
			<point x="664" y="472"/>
			<point x="664" y="251" type="curve" smooth="yes"/>
			<point x="664" y="136"/>
			<point x="646" y="104"/>
			<point x="609" y="104" type="curve" smooth="yes"/>
			<point x="572" y="104"/>
			<point x="554" y="132"/>
			<point x="554" y="230" type="curve" smooth="yes"/>
			<point x="554" y="413" type="line"/>
			<point x="517" y="421"/>
			<point x="462" y="432"/>
			<point x="407" y="432" type="curve" smooth="yes"/>
			<point x="273" y="432"/>
			<point x="220" y="372"/>
			<point x="220" y="223" type="curve" smooth="yes"/>
			<point x="220" y="82"/>
			<point x="268" y="25"/>
			<point x="369" y="25" type="curve" smooth="yes"/>
			<point x="485" y="25"/>
			<point x="479" y="136"/>
			<point x="489" y="216" type="curve"/>
			<point x="468" y="276" type="line"/>
			<point x="468" y="202" type="line" smooth="yes"/>
			<point x="468" y="64"/>
			<point x="529" y="25"/>
			<point x="609" y="25" type="curve" smooth="yes"/>
			<point x="689" y="25"/>
			<point x="751" y="65"/>
		</contour>
		<contour>
			<point x="468" y="342" type="curve"/>
			<point x="468" y="173"/>
			<point x="442" y="107"/>
			<point x="377" y="107" type="curve" smooth="yes"/>
			<point x="327" y="107"/>
			<point x="306" y="132"/>
			<point x="306" y="223" type="curve" smooth="yes"/>
			<point x="306" y="314"/>
			<point x="331" y="350"/>
			<point x="392" y="350" type="curve" smooth="yes"/>
			<point x="446" y="350"/>
			<point x="455" y="346"/>
		</contour>
	</outline>
</glyph>
<glyph name="B" format="2">
	<advance width="633"/>
	<unicode hex="0042"/>
	<guideline x="225" y="114" angle="90"/>
	<outline>
		<contour>
			<point x="65" y="0" type="line"/>
			<point x="412" y="0" type="line" smooth="yes"/>
			<point x="530" y="0"/>
			<point x="598" y="54"/>
			<point x="598" y="174" type="curve" smooth="yes"/>
			<point x="598" y="327"/>
			<point x="516" y="344"/>
			<point x="381" y="344" type="curve"/>
			<point x="340" y="317" type="line"/>
			<point x="488" y="316"/>
			<point x="569" y="335"/>
			<point x="569" y="483" type="curve" smooth="yes"/>
			<point x="569" y="602"/>
			<point x="509" y="650"/>
			<point x="387" y="650" type="curve" smooth="yes"/>
			<point x="65" y="650" type="line"/>
		</contour>
		<contour>
			<point x="120" y="95" type="line"/>
			<point x="167" y="54" type="line"/>
			<point x="167" y="610" type="line"/>
			<point x="109" y="555" type="line"/>
			<point x="364" y="555" type="line" smooth="yes"/>
			<point x="434" y="555"/>
			<point x="469" y="535"/>
			<point x="469" y="463" type="curve" smooth="yes"/>
			<point x="469" y="391"/>
			<point x="434" y="375"/>
			<point x="364" y="375" type="curve" smooth="yes"/>
			<point x="109" y="375" type="line"/>
			<point x="109" y="280" type="line"/>
			<point x="394" y="280" type="line" smooth="yes"/>
			<point x="453" y="280"/>
			<point x="498" y="267"/>
			<point x="498" y="185" type="curve" smooth="yes"/>
			<point x="498" y="107"/>
			<point x="453" y="95"/>
			<point x="394" y="95" type="curve" smooth="yes"/>
		</contour>
	</outline>
</glyph>
<glyph name="M" format="2">
	<advance width="860"/>
	<unicode hex="004D"/>
	<outline>
		<contour>
			<point x="65" y="650" type="line"/>
			<point x="65" y="1" type="line"/>
			<point x="167" y="1" type="line"/>
			<point x="167" y="553" type="line"/>
			<point x="360" y="0" type="line"/>
			<point x="500" y="0" type="line"/>
			<point x="693" y="553" type="line"/>
			<point x="693" y="0" type="line"/>
			<point x="795" y="0" type="line"/>
			<point x="795" y="650" type="line"/>
			<point x="619" y="650" type="line"/>
			<point x="430" y="97" type="line"/>
			<point x="241" y="650" type="line"/>
		</contour>
	</outline>
</glyph>
<glyph name="N" format="2">
	<advance width="690"/>
	<unicode hex="004E"/>
	<anchor x="345" y="650" name="top"/>
	<outline>
		<contour>
			<point x="65" y="650" type="line"/>
			<point x="65" y="0" type="line"/>
			<point x="162" y="0" type="line"/>
			<point x="162" y="553" type="line"/>
			<point x="468" y="0" type="line"/>
			<point x="625" y="0" type="line"/>
			<point x="625" y="650" type="line"/>
			<point x="528" y="650" type="line"/>
			<point x="528" y="97" type="line"/>
			<point x="222" y="650" type="line"/>
		</contour>
	</outline>
</glyph>
<glyph name="Q" format="2">
	<advance width="710"/>
	<unicode hex="0051"/>
	<outline>
		<contour>
			<point x="336" y="12" type="line"/>
			<point x="448" y="-200" type="line"/>
			<point x="557" y="-200" type="line"/>
			<point x="430" y="12" type="line"/>
		</contour>
		<component base="O"/>
	</outline>
</glyph>
<glyph name="R" format="2">
	<advance width="647"/>
	<unicode hex="0052"/>
	<outline>
		<contour>
			<point x="325" y="275" type="line"/>
			<point x="502" y="0" type="line"/>
			<point x="622" y="0" type="line"/>
			<point x="441" y="275" type="line"/>
		</contour>
		<contour>
			<point x="334" y="327" type="curve" smooth="yes"/>
			<point x="142" y="327" type="line"/>
			<point x="142" y="230" type="line"/>
			<point x="359" y="230" type="line"/>
			<point x="359" y="240" type="line"/>
			<point x="523" y="240"/>
			<point x="593" y="304"/>
			<point x="593" y="442" type="curve" smooth="yes"/>
			<point x="593" y="584"/>
			<point x="515" y="650"/>
			<point x="334" y="650" type="curve" smooth="yes"/>
			<point x="65" y="650" type="line"/>
			<point x="65" y="0" type="line"/>
			<point x="168" y="0" type="line"/>
			<point x="168" y="590" type="line"/>
			<point x="147" y="553" type="line"/>
			<point x="334" y="553" type="line" smooth="yes"/>
			<point x="450" y="553"/>
			<point x="493" y="522"/>
			<point x="493" y="440" type="curve" smooth="yes"/>
			<point x="493" y="358"/>
			<point x="450" y="327"/>
		</contour>
	</outline>
</glyph>
<glyph name="S" format="2">
	<advance width="650"/>
	<unicode hex="0053"/>
	<guideline x="554" y="570" angle="0"/>
	<guideline x="282" y="80" angle="0"/>
	<outline>
		<contour>
			<point x="327" y="-15" type="curve" smooth="yes"/>
			<point x="536" y="-15"/>
			<point x="615" y="47"/>
			<point x="615" y="185" type="curve" smooth="yes"/>
			<point x="615" y="335"/>
			<point x="521" y="364"/>
			<point x="325" y="388" type="curve" smooth="yes"/>
			<point x="187" y="405"/>
			<point x="146" y="438"/>
			<point x="146" y="493" type="curve" smooth="yes"/>
			<point x="146" y="549"/>
			<point x="192" y="580"/>
			<point x="315" y="580" type="curve" smooth="yes"/>
			<point x="443" y="580"/>
			<point x="491" y="552"/>
			<point x="491" y="477" type="curve"/>
			<point x="591" y="477" type="line"/>
			<point x="591" y="621"/>
			<point x="518" y="675"/>
			<point x="321" y="675" type="curve" smooth="yes"/>
			<point x="121" y="675"/>
			<point x="46" y="606"/>
			<point x="46" y="485" type="curve" smooth="yes"/>
			<point x="46" y="383"/>
			<point x="101" y="313"/>
			<point x="323" y="285" type="curve" smooth="yes"/>
			<point x="475" y="266"/>
			<point x="515" y="247"/>
			<point x="515" y="183" type="curve" smooth="yes"/>
			<point x="515" y="115"/>
			<point x="464" y="80"/>
			<point x="327" y="80" type="curve" smooth="yes"/>
			<point x="187" y="80"/>
			<point x="135" y="117"/>
			<point x="135" y="215" type="curve"/>
			<point x="35" y="215" type="line"/>
			<point x="35" y="47"/>
			<point x="114" y="-15"/>
		</contour>
	</outline>
</glyph>
<glyph name="W" format="2">
	<advance width="984"/>
	<unicode hex="0057"/>
	<guideline x="-273" y="90" angle="0"/>
	<outline>
		<contour>
			<point x="15" y="650" type="line"/>
			<point x="205" y="0" type="line"/>
			<point x="345" y="0" type="line"/>
			<point x="492" y="558" type="line"/>
			<point x="639" y="0" type="line"/>
			<point x="779" y="0" type="line"/>
			<point x="969" y="650" type="line"/>
			<point x="856" y="650" type="line"/>
			<point x="709" y="92" type="line"/>
			<point x="562" y="650" type="line"/>
			<point x="422" y="650" type="line"/>
			<point x="275" y="92" type="line"/>
			<point x="128" y="650" type="line"/>
		</contour>
	</outline>
</glyph>
<glyph name="Z" format="2">
	<advance width="591"/>
	<unicode hex="005A"/>
	<outline>
		<contour>
			<point x="547" y="650" type="line"/>
			<point x="30" y="650" type="line"/>
			<point x="30" y="553" type="line"/>
			<point x="415" y="553" type="line"/>
			<point x="25" y="102" type="line"/>
			<point x="25" y="0" type="line"/>
			<point x="566" y="0" type="line"/>
			<point x="566" y="97" type="line"/>
			<point x="157" y="97" type="line"/>
			<point x="547" y="548" type="line"/>
		</contour>
	</outline>
</glyph>
<glyph name="a" format="2">
	<advance width="568"/>
	<unicode hex="0061"/>
	<anchor x="287" y="500" name="top"/>
	<outline>
		<contour>
			<point x="265" y="-15" type="curve" smooth="yes"/>
			<point x="398" y="-15"/>
			<point x="452" y="45"/>
			<point x="452" y="173" type="curve"/>
			<point x="438" y="143" type="line"/>
			<point x="438" y="0" type="line"/>
			<point x="518" y="0" type="line"/>
			<point x="518" y="287" type="line" smooth="yes"/>
			<point x="518" y="453"/>
			<point x="456" y="515"/>
			<point x="288" y="515" type="curve" smooth="yes"/>
			<point x="154" y="515"/>
			<point x="85" y="473"/>
			<point x="68" y="368" type="curve"/>
			<point x="168" y="368" type="line"/>
			<point x="181" y="411"/>
			<point x="221" y="427"/>
			<point x="286" y="427" type="curve" smooth="yes"/>
			<point x="385" y="427"/>
			<point x="423" y="393"/>
			<point x="423" y="303" type="curve" smooth="yes"/>
			<point x="423" y="210" type="line" smooth="yes"/>
			<point x="423" y="109"/>
			<point x="384" y="73"/>
			<point x="283" y="73" type="curve" smooth="yes"/>
			<point x="173" y="73"/>
			<point x="145" y="93"/>
			<point x="145" y="143" type="curve" smooth="yes"/>
			<point x="145" y="193"/>
			<point x="173" y="210"/>
			<point x="284" y="210" type="curve" smooth="yes"/>
			<point x="447" y="210" type="line"/>
			<point x="447" y="292" type="line"/>
			<point x="265" y="292" type="line" smooth="yes"/>
			<point x="118" y="292"/>
			<point x="50" y="264"/>
			<point x="50" y="143" type="curve" smooth="yes"/>
			<point x="50" y="22"/>
			<point x="118" y="-15"/>
		</contour>
	</outline>
</glyph>
<glyph name="c" format="2">
	<advance width="535"/>
	<unicode hex="0063"/>
	<outline>
		<contour>
			<point x="283" y="-15" type="curve" smooth="yes"/>
			<point x="418" y="-15"/>
			<point x="488" y="27"/>
			<point x="505" y="132" type="curve"/>
			<point x="405" y="132" type="line"/>
			<point x="392" y="89"/>
			<point x="352" y="73"/>
			<point x="283" y="73" type="curve" smooth="yes"/>
			<point x="174" y="73"/>
			<point x="138" y="116"/>
			<point x="138" y="250" type="curve" smooth="yes"/>
			<point x="138" y="384"/>
			<point x="174" y="427"/>
			<point x="283" y="427" type="curve" smooth="yes"/>
			<point x="351" y="427"/>
			<point x="392" y="411"/>
			<point x="405" y="369" type="curve"/>
			<point x="505" y="369" type="line"/>
			<point x="487" y="473"/>
			<point x="417" y="515"/>
			<point x="283" y="515" type="curve" smooth="yes"/>
			<point x="109" y="515"/>
			<point x="45" y="443"/>
			<point x="45" y="250" type="curve" smooth="yes"/>
			<point x="45" y="57"/>
			<point x="109" y="-15"/>
		</contour>
	</outline>
</glyph>
<glyph name="d" format="2">
	<advance width="592"/>
	<unicode hex="0064"/>
	<outline>
		<contour>
			<point x="447" y="0" type="line"/>
			<point x="527" y="0" type="line"/>
			<point x="527" y="700" type="line"/>
			<point x="432" y="700" type="line"/>
			<point x="432" y="496" type="line" smooth="yes"/>
			<point x="432" y="461"/>
			<point x="438" y="428"/>
			<point x="452" y="393" type="curve"/>
			<point x="447" y="103" type="line"/>
		</contour>
		<contour>
			<point x="280" y="-15" type="curve" smooth="yes"/>
			<point x="417" y="-15"/>
			<point x="468" y="57"/>
			<point x="468" y="250" type="curve" smooth="yes"/>
			<point x="468" y="443"/>
			<point x="417" y="515"/>
			<point x="280" y="515" type="curve" smooth="yes"/>
			<point x="109" y="515"/>
			<point x="45" y="443"/>
			<point x="45" y="250" type="curve" smooth="yes"/>
			<point x="45" y="57"/>
			<point x="109" y="-15"/>
		</contour>
		<contour>
			<point x="285" y="73" type="curve" smooth="yes"/>
			<point x="174" y="73"/>
			<point x="138" y="116"/>
			<point x="138" y="250" type="curve" smooth="yes"/>
			<point x="138" y="384"/>
			<point x="174" y="427"/>
			<point x="285" y="427" type="curve" smooth="yes"/>
			<point x="396" y="427"/>
			<point x="432" y="384"/>
			<point x="432" y="250" type="curve" smooth="yes"/>
			<point x="432" y="116"/>
			<point x="396" y="73"/>
		</contour>
	</outline>
</glyph>
<glyph name="g" format="2">
	<advance width="592"/>
	<unicode hex="0067"/>
	<outline>
		<contour>
			<point x="527" y="13" type="curve" smooth="yes"/>
			<point x="527" y="500" type="line"/>
			<point x="447" y="500" type="line"/>
			<point x="447" y="397" type="line"/>
			<point x="452" y="107" type="line"/>
			<point x="438" y="72"/>
			<point x="432" y="39"/>
			<point x="432" y="4" type="curve" smooth="yes"/>
			<point x="432" y="-3" type="line" smooth="yes"/>
			<point x="432" y="-96"/>
			<point x="398" y="-127"/>
			<point x="294" y="-127" type="curve" smooth="yes"/>
			<point x="220" y="-127"/>
			<point x="177" y="-111"/>
			<point x="162" y="-68" type="curve"/>
			<point x="62" y="-68" type="line"/>
			<point x="79" y="-173"/>
			<point x="153" y="-215"/>
			<point x="294" y="-215" type="curve" smooth="yes"/>
			<point x="464" y="-215"/>
			<point x="527" y="-153"/>
		</contour>
		<contour>
			<point x="280" y="-15" type="curve" smooth="yes"/>
			<point x="417" y="-15"/>
			<point x="468" y="57"/>
			<point x="468" y="250" type="curve" smooth="yes"/>
			<point x="468" y="443"/>
			<point x="417" y="515"/>
			<point x="280" y="515" type="curve" smooth="yes"/>
			<point x="109" y="515"/>
			<point x="45" y="443"/>
			<point x="45" y="250" type="curve" smooth="yes"/>
			<point x="45" y="57"/>
			<point x="109" y="-15"/>
		</contour>
		<contour>
			<point x="285" y="427" type="curve" smooth="yes"/>
			<point x="396" y="427"/>
			<point x="432" y="384"/>
			<point x="432" y="250" type="curve" smooth="yes"/>
			<point x="432" y="116"/>
			<point x="396" y="73"/>
			<point x="285" y="73" type="curve" smooth="yes"/>
			<point x="174" y="73"/>
			<point x="138" y="116"/>
			<point x="138" y="250" type="curve" smooth="yes"/>
			<point x="138" y="384"/>
			<point x="174" y="427"/>
		</contour>
	</outline>
</glyph>
<glyph name="h" format="2">
	<advance width="569"/>
	<unicode hex="0068"/>
	<outline>
		<contour>
			<point x="65" y="700" type="line"/>
			<point x="65" y="0" type="line"/>
			<point x="160" y="0" type="line"/>
			<point x="160" y="362" type="line"/>
			<point x="140" y="393" type="line"/>
			<point x="154" y="428"/>
			<point x="160" y="461"/>
			<point x="160" y="496" type="curve" smooth="yes"/>
			<point x="160" y="700" type="line"/>
		</contour>
		<contour>
			<point x="124" y="292" type="curve"/>
			<point x="160" y="292" type="line"/>
			<point x="160" y="392"/>
			<point x="197" y="427"/>
			<point x="292" y="427" type="curve" smooth="yes"/>
			<point x="387" y="427"/>
			<point x="424" y="386"/>
			<point x="424" y="292" type="curve" smooth="yes"/>
			<point x="424" y="0" type="line"/>
			<point x="519" y="0" type="line"/>
			<point x="519" y="292" type="line" smooth="yes"/>
			<point x="519" y="462"/>
			<point x="451" y="515"/>
			<point x="310" y="515" type="curve" smooth="yes"/>
			<point x="178" y="515"/>
			<point x="124" y="444"/>
		</contour>
	</outline>
</glyph>
<glyph name="k" format="2">
	<advance width="569"/>
	<unicode hex="006B"/>
	<outline>
		<contour>
			<point x="65" y="700" type="line"/>
			<point x="65" y="0" type="line"/>
			<point x="160" y="0" type="line"/>
			<point x="160" y="700" type="line"/>
		</contour>
		<contour>
			<point x="119" y="303" type="line"/>
			<point x="119" y="213" type="line"/>
			<point x="330" y="213" type="line"/>
			<point x="265" y="249" type="line"/>
			<point x="431" y="0" type="line"/>
			<point x="550" y="0" type="line"/>
			<point x="344" y="306" type="line"/>
			<point x="344" y="232" type="line"/>
			<point x="530" y="500" type="line"/>
			<point x="417" y="500" type="line"/>
			<point x="263" y="267" type="line"/>
			<point x="330" y="303" type="line"/>
		</contour>
	</outline>
</glyph>
<glyph name="l" format="2">
	<advance width="323"/>
	<unicode hex="006C"/>
	<outline>
		<contour>
			<point x="236" y="-5" type="curve" smooth="yes"/>
			<point x="258" y="-5"/>
			<point x="281" y="-2"/>
			<point x="303" y="0" type="curve"/>
			<point x="303" y="92" type="line"/>
			<point x="282" y="91"/>
			<point x="258" y="90"/>
			<point x="236" y="90" type="curve" smooth="yes"/>
			<point x="177" y="90"/>
			<point x="156" y="114"/>
			<point x="156" y="180" type="curve" smooth="yes"/>
			<point x="156" y="700" type="line"/>
			<point x="60" y="700" type="line"/>
			<point x="60" y="182" type="line" smooth="yes"/>
			<point x="60" y="45"/>
			<point x="107" y="-5"/>
		</contour>
	</outline>
</glyph>
<glyph name="m" format="2">
	<advance width="908"/>
	<unicode hex="006D"/>
	<guideline x="466" y="427" angle="0"/>
	<outline>
		<contour>
			<point x="65" y="500" type="line"/>
			<point x="65" y="0" type="line"/>
			<point x="160" y="0" type="line"/>
			<point x="160" y="362" type="line"/>
			<point x="145" y="362" type="line"/>
			<point x="145" y="500" type="line"/>
		</contour>
		<contour>
			<point x="124" y="292" type="curve"/>
			<point x="160" y="292" type="line"/>
			<point x="160" y="392"/>
			<point x="196" y="427"/>
			<point x="287" y="427" type="curve" smooth="yes"/>
			<point x="378" y="427"/>
			<point x="414" y="386"/>
			<point x="414" y="292" type="curve" smooth="yes"/>
			<point x="414" y="0" type="line"/>
			<point x="509" y="0" type="line"/>
			<point x="509" y="292" type="line" smooth="yes"/>
			<point x="509" y="462"/>
			<point x="443" y="515"/>
			<point x="305" y="515" type="curve" smooth="yes"/>
			<point x="177" y="515"/>
			<point x="124" y="444"/>
		</contour>
		<contour>
			<point x="463" y="292" type="curve"/>
			<point x="509" y="292" type="line"/>
			<point x="509" y="392"/>
			<point x="545" y="427"/>
			<point x="636" y="427" type="curve" smooth="yes"/>
			<point x="727" y="427"/>
			<point x="763" y="386"/>
			<point x="763" y="292" type="curve" smooth="yes"/>
			<point x="763" y="0" type="line"/>
			<point x="858" y="0" type="line"/>
			<point x="858" y="292" type="line" smooth="yes"/>
			<point x="858" y="462"/>
			<point x="790" y="515"/>
			<point x="649" y="515" type="curve" smooth="yes"/>
			<point x="517" y="515"/>
			<point x="463" y="444"/>
		</contour>
	</outline>
</glyph>
<glyph name="o" format="2">
	<advance width="570"/>
	<unicode hex="006F"/>
	<anchor x="285" y="500" name="top"/>
	<outline>
		<contour>
			<point x="285" y="-15" type="curve" smooth="yes"/>
			<point x="460" y="-15"/>
			<point x="525" y="57"/>
			<point x="525" y="250" type="curve" smooth="yes"/>
			<point x="525" y="443"/>
			<point x="460" y="515"/>
			<point x="285" y="515" type="curve" smooth="yes"/>
			<point x="110" y="515"/>
			<point x="45" y="443"/>
			<point x="45" y="250" type="curve" smooth="yes"/>
			<point x="45" y="57"/>
			<point x="110" y="-15"/>
		</contour>
		<contour>
			<point x="285" y="73" type="curve" smooth="yes"/>
			<point x="174" y="73"/>
			<point x="138" y="116"/>
			<point x="138" y="250" type="curve" smooth="yes"/>
			<point x="138" y="384"/>
			<point x="174" y="427"/>
			<point x="285" y="427" type="curve" smooth="yes"/>
			<point x="396" y="427"/>
			<point x="432" y="384"/>
			<point x="432" y="250" type="curve" smooth="yes"/>
			<point x="432" y="116"/>
			<point x="396" y="73"/>
		</contour>
	</outline>
</glyph>
<glyph name="s" format="2">
	<advance width="517"/>
	<unicode hex="0073"/>
	<outline>
		<contour>
			<point x="250" y="515" type="curve" smooth="yes"/>
			<point x="416" y="515"/>
			<point x="475" y="461"/>
			<point x="475" y="369" type="curve"/>
			<point x="380" y="369" type="line"/>
			<point x="376" y="408"/>
			<point x="339" y="427"/>
			<point x="254" y="427" type="curve" smooth="yes"/>
			<point x="154" y="427"/>
			<point x="131" y="404"/>
			<point x="131" y="368" type="curve" smooth="yes"/>
			<point x="131" y="334"/>
			<point x="160" y="314"/>
			<point x="278" y="296" type="curve" smooth="yes"/>
			<point x="420" y="275"/>
			<point x="492" y="253"/>
			<point x="492" y="141" type="curve" smooth="yes"/>
			<point x="492" y="32"/>
			<point x="423" y="-15"/>
			<point x="261" y="-15" type="curve" smooth="yes"/>
			<point x="108" y="-15"/>
			<point x="32" y="32"/>
			<point x="25" y="138" type="curve"/>
			<point x="120" y="138" type="line"/>
			<point x="125" y="99"/>
			<point x="153" y="73"/>
			<point x="260" y="73" type="curve" smooth="yes"/>
			<point x="366" y="73"/>
			<point x="397" y="92"/>
			<point x="397" y="137" type="curve" smooth="yes"/>
			<point x="397" y="177"/>
			<point x="372" y="195"/>
			<point x="248" y="209" type="curve" smooth="yes"/>
			<point x="91" y="227"/>
			<point x="36" y="269"/>
			<point x="36" y="361" type="curve" smooth="yes"/>
			<point x="36" y="465"/>
			<point x="105" y="515"/>
		</contour>
	</outline>
</glyph>
<glyph name="t" format="2">
	<advance width="413"/>
	<unicode hex="0074"/>
	<outline>
		<contour>
			<point x="10" y="500" type="line"/>
			<point x="10" y="414" type="line"/>
			<point x="393" y="414" type="line"/>
			<point x="393" y="500" type="line"/>
		</contour>
		<contour>
			<point x="298" y="-5" type="curve" smooth="yes"/>
			<point x="331" y="-5"/>
			<point x="362" y="-2"/>
			<point x="393" y="0" type="curve"/>
			<point x="393" y="92" type="line"/>
			<point x="366" y="91"/>
			<point x="331" y="89"/>
			<point x="298" y="90" type="curve" smooth="yes"/>
			<point x="235" y="92"/>
			<point x="213" y="114"/>
			<point x="213" y="180" type="curve" smooth="yes"/>
			<point x="213" y="600" type="line"/>
			<point x="117" y="600" type="line"/>
			<point x="117" y="182" type="line" smooth="yes"/>
			<point x="117" y="45"/>
			<point x="165" y="-5"/>
		</contour>
	</outline>
</glyph>
<glyph name="u" format="2">
	<advance width="563"/>
	<unicode hex="0075"/>
	<anchor x="256" y="0" name="bottom"/>
	<outline>
		<contour>
			<point x="498" y="0" type="line"/>
			<point x="498" y="500" type="line"/>
			<point x="403" y="500" type="line"/>
			<point x="403" y="138" type="line"/>
			<point x="418" y="138" type="line"/>
			<point x="418" y="0" type="line"/>
		</contour>
		<contour>
			<point x="439" y="208" type="curve"/>
			<point x="403" y="208" type="line"/>
			<point x="403" y="108"/>
			<point x="367" y="73"/>
			<point x="273" y="73" type="curve" smooth="yes"/>
			<point x="181" y="73"/>
			<point x="145" y="114"/>
			<point x="145" y="208" type="curve" smooth="yes"/>
			<point x="145" y="500" type="line"/>
			<point x="50" y="500" type="line"/>
			<point x="50" y="208" type="line" smooth="yes"/>
			<point x="50" y="38"/>
			<point x="117" y="-15"/>
			<point x="255" y="-15" type="curve" smooth="yes"/>
			<point x="386" y="-15"/>
			<point x="439" y="56"/>
		</contour>
	</outline>
</glyph>
<glyph name="v" format="2">
	<advance width="520"/>
	<unicode hex="0076"/>
	<outline>
		<contour>
			<point x="5" y="500" type="line"/>
			<point x="194" y="0" type="line"/>
			<point x="326" y="0" type="line"/>
			<point x="515" y="500" type="line"/>
			<point x="407" y="500" type="line"/>
			<point x="260" y="90" type="line"/>
			<point x="113" y="500" type="line"/>
		</contour>
	</outline>
</glyph>
<glyph name="w" format="2">
	<advance width="806"/>
	<unicode hex="0077"/>
	<outline>
		<contour>
			<point x="5" y="500" type="line"/>
			<point x="159" y="0" type="line"/>
			<point x="291" y="0" type="line"/>
			<point x="403" y="410" type="line"/>
			<point x="515" y="0" type="line"/>
			<point x="647" y="0" type="line"/>
			<point x="801" y="500" type="line"/>
			<point x="693" y="500" type="line"/>
			<point x="581" y="90" type="line"/>
			<point x="469" y="500" type="line"/>
			<point x="337" y="500" type="line"/>
			<point x="225" y="90" type="line"/>
			<point x="113" y="500" type="line"/>
		</contour>
	</outline>
</glyph>
<glyph name="x" format="2">
	<advance width="510"/>
	<unicode hex="0078"/>
	<outline>
		<contour>
			<point x="387" y="-1" type="line"/>
			<point x="505" y="-1" type="line"/>
			<point x="129" y="499" type="line"/>
			<point x="11" y="500" type="line"/>
		</contour>
		<contour>
			<point x="294" y="226" type="line"/>
			<point x="486" y="499" type="line"/>
			<point x="373" y="499" type="line"/>
			<point x="181" y="226" type="line"/>
		</contour>
		<contour>
			<point x="118" y="0" type="line"/>
			<point x="313" y="276" type="line"/>
			<point x="200" y="276" type="line"/>
			<point x="5" y="0" type="line"/>
		</contour>
	</outline>
</glyph>
<glyph name="y" format="2">
	<advance width="520"/>
	<unicode hex="0079"/>
	<outline>
		<contour>
			<point x="5" y="500" type="line"/>
			<point x="130" y="171" type="line" smooth="yes"/>
			<point x="157" y="101"/>
			<point x="181" y="36"/>
			<point x="193" y="0" type="curve"/>
			<point x="193" y="-81"/>
			<point x="142" y="-110"/>
			<point x="2" y="-110" type="curve" smooth="yes"/>
			<point x="-5" y="-110" type="line"/>
			<point x="-5" y="-200" type="line"/>
			<point x="2" y="-200" type="line" smooth="yes"/>
			<point x="239" y="-200"/>
			<point x="274" y="-137"/>
			<point x="326" y="0" type="curve" smooth="yes"/>
			<point x="515" y="500" type="line"/>
			<point x="407" y="500" type="line"/>
			<point x="260" y="90" type="line"/>
			<point x="113" y="500" type="line"/>
		</contour>
	</outline>
</glyph>
<glyph name="idotless" format="2">
	<advance width="226"/>
	<unicode hex="0131"/>
	<anchor x="113" y="500" name="top"/>
	<outline>
		<contour>
			<point x="65" y="500" type="line"/>
			<point x="65" y="0" type="line"/>
			<point x="161" y="0" type="line"/>
			<point x="161" y="500" type="line"/>
		</contour>
	</outline>
</glyph>
<glyph name="tildecomb" format="2">
	<advance width="0"/>
	<unicode hex="0303"/>
	<anchor x="0" y="500" name="_top"/>
	<outline>
		<contour>
			<point x="-206" y="615" type="curve" smooth="yes"/>
			<point x="-206" y="594" type="line"/>
			<point x="-126" y="594" type="line"/>
			<point x="-126" y="615" type="line" smooth="yes"/>
			<point x="-126" y="644"/>
			<point x="-112" y="657"/>
			<point x="-87" y="657" type="curve" smooth="yes"/>
			<point x="-64" y="657"/>
			<point x="-51" y="648"/>
			<point x="-38" y="634" type="curve" smooth="yes"/>
			<point x="-10" y="602"/>
			<point x="24" y="581"/>
			<point x="87" y="581" type="curve" smooth="yes"/>
			<point x="169" y="581"/>
			<point x="206" y="620"/>
			<point x="206" y="699" type="curve" smooth="yes"/>
			<point x="206" y="720" type="line"/>
			<point x="126" y="720" type="line"/>
			<point x="126" y="699" type="line" smooth="yes"/>
			<point x="126" y="670"/>
			<point x="112" y="657"/>
			<point x="87" y="657" type="curve" smooth="yes"/>
			<point x="64" y="657"/>
			<point x="49" y="668"/>
			<point x="32" y="687" type="curve" smooth="yes"/>
			<point x="10" y="712"/>
			<point x="-17" y="733"/>
			<point x="-87" y="733" type="curve" smooth="yes"/>
			<point x="-169" y="733"/>
			<point x="-206" y="694"/>
		</contour>
	</outline>
</glyph>
<glyph name=".notdef" format="2">
	<advance width="550"/>
	<outline>
		<contour>
			<point x="65" y="-200" type="line"/>
			<point x="485" y="-200" type="line"/>
			<point x="485" y="750" type="line"/>
			<point x="65" y="750" type="line"/>
		</contour>
		<contour>
			<point x="160" y="-110" type="line"/>
			<point x="160" y="660" type="line"/>
			<point x="390" y="660" type="line"/>
			<point x="390" y="-110" type="line"/>
		</contour>
	</outline>
</glyph>
